<svg width="20" height="27" viewBox="0 0 20 27" fill="none" xmlns="http://www.w3.org/2000/svg">
<path fill-rule="evenodd" clip-rule="evenodd" d="M9.9974 2.86906C6.3155 2.86906 3.33073 5.85383 3.33073 9.53573C3.33073 13.2529 5.47966 18.6921 9.99739 23.6095C14.5151 18.6921 16.6641 13.2529 16.6641 9.53573C16.6641 5.85383 13.6793 2.86906 9.9974 2.86906ZM0.664062 9.53573C0.664062 4.38107 4.84274 0.202393 9.9974 0.202393C15.1521 0.202393 19.3307 4.38107 19.3307 9.53573C19.3307 14.4053 16.4448 20.9739 10.9402 26.4785C10.4195 26.9992 9.57529 26.9992 9.05459 26.4785C3.54999 20.9739 0.664062 14.4053 0.664062 9.53573Z" fill="#A0ABBB"/>
<path fill-rule="evenodd" clip-rule="evenodd" d="M9.9974 10.8691C10.7338 10.8691 11.3307 10.2721 11.3307 9.53573C11.3307 8.79935 10.7338 8.20239 9.9974 8.20239C9.26102 8.20239 8.66406 8.79935 8.66406 9.53573C8.66406 10.2721 9.26102 10.8691 9.9974 10.8691ZM9.9974 13.5357C12.2065 13.5357 13.9974 11.7449 13.9974 9.53573C13.9974 7.32659 12.2065 5.53573 9.9974 5.53573C7.78826 5.53573 5.9974 7.32659 5.9974 9.53573C5.9974 11.7449 7.78826 13.5357 9.9974 13.5357Z" fill="#A0ABBB"/>
</svg>
