<svg width="42" height="42" viewBox="0 0 42 42" fill="none" xmlns="http://www.w3.org/2000/svg">
<path fill-rule="evenodd" clip-rule="evenodd" d="M40.1734 20.9998C40.1734 31.6037 31.5773 40.1998 20.9734 40.1998C10.3696 40.1998 1.77344 31.6037 1.77344 20.9998C1.77344 10.3959 10.3696 1.7998 20.9734 1.7998C31.5773 1.7998 40.1734 10.3959 40.1734 20.9998ZM20.9734 41.7998C32.461 41.7998 41.7734 32.4873 41.7734 20.9998C41.7734 9.51228 32.461 0.199806 20.9734 0.199806C9.48592 0.199806 0.173439 9.51228 0.173439 20.9998C0.173439 32.4873 9.48592 41.7998 20.9734 41.7998Z" fill="#41C7DF"/>
<path fill-rule="evenodd" clip-rule="evenodd" d="M20.9734 27.7998C21.4153 27.7998 21.7734 27.4416 21.7734 26.9998V14.9998C21.7734 14.558 21.4153 14.1998 20.9734 14.1998C20.5316 14.1998 20.1734 14.558 20.1734 14.9998V26.9998C20.1734 27.4416 20.5316 27.7998 20.9734 27.7998Z" fill="#41C7DF"/>
<path fill-rule="evenodd" clip-rule="evenodd" d="M27.196 21.2224C27.5085 20.91 27.5085 20.4035 27.196 20.0911L21.5392 14.4342C21.2268 14.1218 20.7202 14.1218 20.4078 14.4342L14.751 20.0911C14.4385 20.4035 14.4385 20.91 14.751 21.2224C15.0634 21.5348 15.5699 21.5348 15.8823 21.2224L20.9735 16.1313L26.0647 21.2224C26.3771 21.5348 26.8836 21.5348 27.196 21.2224Z" fill="#41C7DF"/>
</svg>
