<svg width="528" height="202" viewBox="0 0 528 202" fill="none" xmlns="http://www.w3.org/2000/svg">
<path d="M276.434 38.2031V61.0513H286.447V53.6735C281.599 49.5557 278.05 44.3226 276.434 38.2031Z" fill="#383838"/>
<path d="M245.321 7.74949C247.222 9.37946 248.87 10.8378 251.278 14.3551C251.278 14.3551 254.098 14.3551 255.334 14.3551V0H245.321V7.74949Z" fill="#383838"/>
<path d="M245.166 23.736H240.096H235.027V33.144H245.166C243.804 43.5816 234.33 51.6456 222.86 51.6456C210.439 51.6456 200.395 42.209 200.395 30.5418C200.395 18.9033 210.471 9.43805 222.86 9.43805C228.341 9.43805 233.348 11.2682 237.245 14.3279H250.331C244.596 5.74918 234.425 0.0585938 222.86 0.0585938C204.926 0.0871897 190.414 13.7274 190.414 30.5418C190.414 47.3562 204.926 60.9965 222.86 60.9965C231.573 60.9965 239.494 57.7651 245.325 52.5035V61.0251H255.337V23.736C254.957 23.736 250.426 23.736 250.267 23.736H245.166Z" fill="#383838"/>
<path d="M276.442 33.144C278.09 49.2435 292.38 61.0251 308.888 61.0251C310.029 61.0251 311.138 60.9393 312.183 60.8249C322.386 59.8526 331.163 54.448 336.359 46.7271H323.273C319.376 49.7869 314.37 51.617 308.888 51.617C306.195 51.617 303.597 51.1595 301.189 50.3588C301.125 50.3302 301.062 50.3016 300.998 50.3016C300.745 50.2158 300.491 50.1014 300.206 50.0156C300.048 49.9584 299.889 49.8727 299.699 49.8155C299.541 49.7583 299.414 49.7011 299.256 49.6439C299.002 49.5295 298.749 49.4151 298.495 49.3007C298.432 49.2721 298.4 49.2435 298.337 49.2149C291.461 45.7834 286.708 39.1206 286.392 31.3997H286.36V29.3122C286.392 28.6545 286.487 27.9682 286.582 27.3105C286.708 26.6242 286.835 25.9379 287.025 25.2516C287.31 24.2507 287.659 23.2499 288.071 22.3062C288.768 20.7334 289.687 19.2464 290.764 17.9024C290.986 17.6451 291.208 17.3591 291.429 17.1018C291.873 16.587 292.38 16.0723 292.887 15.6148C293.14 15.386 293.394 15.1572 293.679 14.9285C294.471 14.2422 295.327 13.6131 296.214 13.0411C299.794 10.7535 304.135 9.43805 308.793 9.43805C314.275 9.43805 319.281 11.2682 323.178 14.3279H336.264C330.624 5.74918 320.453 0.0585938 308.888 0.0585938C300.175 0.0585938 292.285 3.28993 286.455 8.52298V0.115785H276.442V23.736H256.322C256.322 28.1684 256.322 32.2004 256.322 33.144H276.442Z" fill="#383838"/>
<g clip-path="url(#clip0_424_435)">
<path d="M48.5622 142.664V132.861C46.5916 136.506 43.8389 139.223 40.3122 141.017C36.7854 142.812 32.5783 143.712 27.7065 143.712C24.2266 143.712 20.8328 143.142 17.5093 141.995C14.1858 140.848 11.2299 139.18 8.63368 136.985C6.03747 134.789 3.94955 132.08 2.36993 128.864C0.790307 125.641 -0.00732422 121.954 -0.00732422 117.802C-0.00732422 113.65 0.782487 109.97 2.36993 106.768C3.94955 103.573 6.03747 100.871 8.63368 98.6825C11.2299 96.4869 14.1858 94.8191 17.5093 93.6721C20.8328 92.5321 24.2266 91.9551 27.7065 91.9551C30.3027 91.9551 32.9067 92.2717 35.5264 92.898C38.146 93.5314 40.6328 94.4743 42.9944 95.734C45.356 96.9936 47.483 98.5699 49.3754 100.463C51.2679 102.356 52.7615 104.587 53.8484 107.148H46.0676C45.2856 104.952 44.2221 102.996 42.8771 101.265C41.5242 99.541 40.0228 98.0914 38.365 96.9232C36.7072 95.7551 34.9633 94.8684 33.1491 94.2632C31.3349 93.658 29.5207 93.3554 27.6986 93.3554C25.2588 93.3554 22.8894 93.9395 20.5747 95.1077C18.2678 96.2758 16.2034 97.9225 14.3891 100.048C12.5749 102.173 11.1048 104.741 9.99435 107.753C8.8761 110.765 8.32089 114.115 8.32089 117.802C8.32089 121.489 8.8761 124.839 9.99435 127.851C11.1126 130.863 12.5749 133.445 14.3891 135.592C16.2034 137.738 18.2678 139.399 20.5747 140.567C22.8816 141.735 25.2588 142.319 27.6986 142.319C30.4512 142.319 33.0162 141.96 35.4013 141.235C37.7863 140.51 39.9055 139.342 41.7432 137.731C43.5809 136.119 45.1058 133.994 46.2944 131.355C47.4908 128.716 48.2416 125.508 48.5544 121.729V118.998H39.061C36.6212 118.998 34.2752 119.406 32.0152 120.223C29.7553 121.039 27.7456 122.404 25.9861 124.318L27.464 117.802H55.2482V142.593L48.5544 142.664H48.5622Z" fill="#383838"/>
<path d="M106.155 125.05C106.155 127.991 105.717 130.581 104.833 132.826C103.95 135.063 102.691 136.956 101.056 138.497C99.4221 140.039 97.4514 141.207 95.1446 142.002C92.8377 142.797 90.2806 143.191 87.4811 143.191C84.6815 143.191 81.9915 142.797 79.4265 142.002C76.8616 141.207 74.5782 140.039 72.5763 138.497C70.5822 136.956 68.9948 135.063 67.8296 132.826C66.6644 130.588 66.0779 127.991 66.0779 125.05V99.4913C66.0779 98.2317 65.9215 96.9791 65.6088 95.7476C65.296 94.5091 64.858 93.4746 64.2872 92.6302V92.5598L64.209 92.4895H75.8059L75.7277 92.5598V92.7006C75.1021 93.538 74.6095 94.5795 74.2498 95.818C73.89 97.0565 73.7024 98.2809 73.7024 99.4983V125.064C73.7024 126.929 73.9761 128.857 74.5235 130.841C75.0709 132.826 75.9076 134.634 77.0493 136.267C78.191 137.899 79.6299 139.229 81.3659 140.257C83.1019 141.284 85.1664 141.798 87.5514 141.798C90.1476 141.798 92.4936 141.411 94.5972 140.644C96.7007 139.877 98.4915 138.779 99.9695 137.35C101.447 135.929 102.589 134.177 103.395 132.101C104.2 130.025 104.599 127.675 104.599 125.064V99.4209C104.599 98.3443 104.458 97.1831 104.169 95.9165C103.879 94.6569 103.504 93.538 103.043 92.5528V92.4824H107.711V92.5528C107.242 93.5309 106.867 94.6569 106.585 95.9165C106.296 97.1761 106.155 98.3443 106.155 99.4209V125.057V125.05Z" fill="#383838"/>
<path d="M126.62 141.474H137.435C139.718 141.474 141.634 141.333 143.19 141.051C144.746 140.77 146.107 140.313 147.272 139.686C148.437 139.053 149.493 138.251 150.424 137.273C151.354 136.294 152.316 135.098 153.301 133.698L151.12 142.663H117.033L117.111 142.593V142.522C117.682 141.727 118.135 140.728 118.472 139.51C118.808 138.3 118.98 137.033 118.98 135.731V99.9412C118.98 98.6816 118.808 97.429 118.472 96.1975C118.135 94.959 117.682 93.9457 117.111 93.1505V93.0801L117.033 93.0098H128.63L128.395 93.3616C127.824 94.1568 127.386 95.1631 127.073 96.3735C126.761 97.5909 126.604 98.8223 126.604 100.082V141.474H126.62Z" fill="#383838"/>
<path d="M160.941 142.664L161.098 142.523C161.669 141.728 162.107 140.736 162.419 139.547C162.732 138.357 162.889 137.084 162.889 135.733V99.8017C162.889 98.5913 162.717 97.3598 162.38 96.1213C162.044 94.8828 161.559 93.8483 160.941 93.0039H194.872L196.663 102.321C195.834 100.688 194.927 99.3443 193.941 98.2957C192.956 97.2472 191.916 96.4169 190.829 95.8117C189.742 95.2065 188.6 94.7843 187.404 94.552C186.208 94.3198 185.019 94.2002 183.822 94.2002H171.913C171.545 94.9954 171.248 95.8961 171.021 96.8954C170.787 97.9017 170.669 98.8657 170.669 99.8017V116.747H185.613C186.653 116.747 187.607 116.184 188.491 115.065C189.375 113.946 190.047 112.546 190.516 110.864V123.889C190.305 123.143 190.039 122.405 189.703 121.687C189.367 120.962 188.991 120.322 188.577 119.759C188.163 119.196 187.709 118.752 187.216 118.429C186.724 118.105 186.192 117.936 185.621 117.936H170.677V135.866C170.677 136.331 170.732 136.873 170.834 137.478C170.935 138.083 171.068 138.702 171.225 139.336C171.381 139.969 171.561 140.574 171.772 141.158C171.975 141.742 172.21 142.242 172.476 142.664H160.957H160.941Z" fill="#383838"/>
<path d="M232.853 135.591C232.853 136.85 233.018 138.103 233.362 139.334C233.698 140.573 234.151 141.607 234.722 142.452L234.8 142.593L234.879 142.663H223.282L223.438 142.522C224.009 141.727 224.447 140.735 224.76 139.546C225.073 138.356 225.229 137.083 225.229 135.731V99.9412C225.229 98.6816 225.073 97.429 224.76 96.1975C224.447 94.959 224.009 93.9457 223.438 93.1505L223.282 93.0098H234.879L234.8 93.0801L234.722 93.2209C234.151 94.0583 233.698 95.0998 233.362 96.3383C233.025 97.5768 232.853 98.8223 232.853 100.082V116.33L261.028 116.401V100.082C261.028 98.8223 260.856 97.5697 260.52 96.3383C260.184 95.0998 259.73 94.0653 259.16 93.2209L259.081 93.0801L259.003 93.0098H270.6L270.444 93.1505C269.873 93.9457 269.435 94.9379 269.122 96.1272C268.809 97.3164 268.653 98.5901 268.653 99.9412V135.731C268.653 136.991 268.809 138.244 269.122 139.475C269.435 140.714 269.873 141.727 270.444 142.522L270.6 142.663H259.003L259.081 142.593L259.16 142.452C259.73 141.614 260.184 140.573 260.52 139.334C260.856 138.096 261.028 136.85 261.028 135.591V117.801L232.853 117.731V135.591Z" fill="#383838"/>
<path d="M279.163 117.802C279.163 113.65 279.953 109.97 281.54 106.768C283.12 103.573 285.208 100.871 287.804 98.6825C290.4 96.4869 293.356 94.8191 296.68 93.6721C299.995 92.5321 303.389 91.9551 306.869 91.9551C310.349 91.9551 313.743 92.5251 317.066 93.6721C320.39 94.8191 323.346 96.4869 325.942 98.6825C328.538 100.878 330.626 103.573 332.206 106.768C333.785 109.97 334.583 113.643 334.583 117.802C334.583 121.961 333.793 125.648 332.206 128.864C330.626 132.087 328.538 134.796 325.942 136.985C323.346 139.18 320.39 140.848 317.066 141.995C313.743 143.142 310.349 143.712 306.869 143.712C303.389 143.712 299.995 143.142 296.672 141.995C293.348 140.848 290.392 139.18 287.796 136.985C285.2 134.789 283.112 132.08 281.533 128.864C279.953 125.641 279.155 121.954 279.155 117.802H279.163ZM287.491 117.802C287.491 121.489 288.047 124.839 289.165 127.851C290.283 130.863 291.745 133.445 293.56 135.592C295.374 137.738 297.438 139.399 299.745 140.567C302.052 141.735 304.429 142.319 306.869 142.319C309.309 142.319 311.678 141.735 313.993 140.567C316.3 139.399 318.364 137.745 320.179 135.592C321.993 133.445 323.463 130.863 324.573 127.851C325.692 124.839 326.247 121.489 326.247 117.802C326.247 114.115 325.692 110.765 324.573 107.753C323.455 104.741 321.993 102.173 320.179 100.048C318.364 97.9225 316.3 96.2758 313.993 95.1077C311.686 93.9395 309.309 93.3554 306.869 93.3554C304.429 93.3554 302.06 93.9395 299.745 95.1077C297.438 96.2758 295.374 97.9225 293.56 100.048C291.745 102.173 290.275 104.741 289.165 107.753C288.047 110.765 287.491 114.115 287.491 117.802Z" fill="#383838"/>
<path d="M360.609 94.9803C358.951 94.9803 357.145 95.0647 355.198 95.2266C353.251 95.3884 351.382 95.691 349.591 96.1343C347.8 96.5777 346.205 97.1829 344.805 97.9569C343.405 98.724 342.389 99.7443 341.771 101.004L340.606 103.382L342.944 93.791H385.907L388.245 103.382L386.689 100.793C385.961 99.5825 384.898 98.5832 383.498 97.8162C382.098 97.0492 380.542 96.451 378.83 96.0288C377.117 95.6066 375.342 95.3251 373.497 95.1914C371.651 95.0506 369.899 94.9803 368.242 94.9803V136.513C368.242 137.772 368.406 139.025 368.75 140.256C369.086 141.495 369.54 142.508 370.11 143.303V143.374L370.189 143.444H358.592L358.826 143.092C359.397 142.297 359.835 141.298 360.148 140.08C360.461 138.87 360.617 137.632 360.617 136.372V94.9803H360.609Z" fill="#383838"/>
<path d="M430.377 142.664H396.446L396.603 142.523C397.174 141.728 397.611 140.736 397.924 139.547C398.237 138.357 398.393 137.084 398.393 135.733V99.8017C398.393 98.5913 398.221 97.3598 397.885 96.1213C397.549 94.8828 397.064 93.8483 396.446 93.0039H430.377L432.168 102.321C431.339 100.688 430.432 99.3443 429.446 98.2957C428.461 97.2472 427.421 96.4169 426.334 95.8117C425.247 95.2065 424.105 94.7843 422.909 94.552C421.712 94.3198 420.524 94.2002 419.327 94.2002H407.418C407.058 94.9954 406.753 95.8961 406.526 96.8954C406.292 97.9017 406.174 98.8657 406.174 99.8017V116.747H421.118C422.158 116.747 423.112 116.184 423.996 115.065C424.88 113.946 425.552 112.546 426.021 110.864V123.889C425.81 123.143 425.544 122.405 425.2 121.687C424.864 120.962 424.488 120.322 424.074 119.759C423.66 119.196 423.206 118.752 422.713 118.429C422.221 118.105 421.689 117.936 421.118 117.936H406.174V135.866C406.174 136.802 406.307 137.759 406.565 138.737C406.823 139.716 407.214 140.602 407.73 141.397H419.327C421.04 141.397 422.518 141.271 423.761 141.01C425.005 140.757 426.123 140.321 427.108 139.716C428.093 139.11 428.985 138.294 429.79 137.267C430.596 136.239 431.386 134.93 432.168 133.347L430.377 142.664Z" fill="#383838"/>
<path d="M451.241 141.474H462.055C464.339 141.474 466.255 141.333 467.811 141.051C469.367 140.77 470.728 140.313 471.901 139.686C473.066 139.053 474.122 138.251 475.052 137.273C475.983 136.294 476.945 135.098 477.93 133.698L475.748 142.663H441.661L441.739 142.593V142.522C442.31 141.727 442.764 140.728 443.1 139.51C443.436 138.3 443.608 137.033 443.608 135.731V99.9412C443.608 98.6816 443.436 97.429 443.1 96.1975C442.764 94.959 442.31 93.9457 441.739 93.1505V93.0801L441.661 93.0098H453.258L453.023 93.3616C452.453 94.1568 452.015 95.1631 451.702 96.3735C451.389 97.5909 451.233 98.8223 451.233 100.082V141.474H451.241Z" fill="#383838"/>
<path d="M525.795 107.092C525.068 105.832 524.067 104.397 522.8 102.785C521.526 101.174 520.009 99.6608 518.249 98.2323C516.482 96.8108 514.543 95.5934 512.416 94.5871C510.289 93.5808 508.005 93.0812 505.565 93.0812C504.009 93.0812 502.453 93.3064 500.897 93.7497C499.341 94.193 497.941 94.8264 496.697 95.6427C495.454 96.459 494.438 97.4652 493.663 98.6545C492.881 99.8438 492.498 101.188 492.498 102.68C492.498 104.544 492.928 106.079 493.781 107.268C494.641 108.457 495.751 109.463 497.128 110.28C498.504 111.096 500.06 111.8 501.796 112.384C503.532 112.968 505.26 113.587 506.973 114.241C510.445 115.501 513.495 116.655 516.114 117.711C518.734 118.759 520.916 119.836 522.652 120.934C524.388 122.031 525.686 123.221 526.546 124.508C527.399 125.796 527.829 127.302 527.829 129.026C527.829 130.94 527.297 132.784 526.233 134.557C525.17 136.331 523.676 137.893 521.76 139.251C519.837 140.602 517.545 141.693 514.871 142.509C512.197 143.325 509.256 143.734 506.034 143.734C503.282 143.734 500.733 143.431 498.371 142.826C496.009 142.221 493.898 141.447 492.029 140.518C490.16 139.582 488.549 138.554 487.204 137.435C485.851 136.317 484.819 135.24 484.092 134.213V126.021C485.593 128.59 487.228 130.891 488.995 132.918C490.754 134.951 492.576 136.654 494.445 138.034C496.314 139.413 498.191 140.475 500.091 141.221C501.984 141.967 503.814 142.368 505.581 142.411C507.653 142.46 509.616 142.214 511.454 141.679C513.291 141.144 514.902 140.419 516.279 139.504C517.655 138.597 518.742 137.555 519.547 136.387C520.353 135.219 520.752 134.03 520.752 132.812C520.752 131.925 520.572 131.004 520.204 130.047C519.844 129.09 519.125 128.118 518.062 127.14C516.998 126.162 515.497 125.156 513.549 124.128C511.602 123.101 509.076 122.074 505.964 121.046C503.321 120.209 500.787 119.364 498.379 118.527C495.962 117.69 493.828 116.733 491.959 115.656C490.09 114.579 488.596 113.334 487.486 111.912C486.367 110.491 485.812 108.774 485.812 106.768C485.812 104.763 486.305 102.954 487.29 101.202C488.275 99.4497 489.628 97.9015 491.341 96.5434C493.053 95.1923 495.087 94.1016 497.448 93.2853C499.81 92.469 502.39 92.0397 505.19 91.9904C507.317 91.9412 509.428 92.0749 511.532 92.3775C513.635 92.6801 515.59 93.1023 517.405 93.6371C519.219 94.1719 520.869 94.8193 522.347 95.5653C523.825 96.3112 525.006 97.1275 525.889 98.0141L525.811 107.12L525.795 107.092Z" fill="#383838"/>
<path d="M142.049 179.623C143.425 177.378 145.31 175.626 147.695 174.373C150.08 173.12 152.746 172.494 155.687 172.494C159.268 172.494 162.342 173.261 164.891 174.788C167.448 176.315 169.309 178.476 170.474 181.255H166.705C165.79 179.299 164.383 177.772 162.506 176.667C160.621 175.562 158.353 175.013 155.687 175.013C153.325 175.013 151.206 175.506 149.329 176.498C147.445 177.49 145.967 178.919 144.895 180.777C143.824 182.634 143.284 184.795 143.284 187.244C143.284 189.693 143.816 191.846 144.895 193.69C145.967 195.533 147.445 196.955 149.329 197.947C151.214 198.939 153.333 199.432 155.687 199.432C158.353 199.432 160.621 198.89 162.506 197.799C164.39 196.709 165.79 195.203 166.705 193.274H170.474C169.309 196.033 167.44 198.165 164.875 199.678C162.302 201.191 159.245 201.951 155.687 201.951C152.746 201.951 150.088 201.325 147.695 200.072C145.31 198.82 143.425 197.074 142.049 194.844C140.673 192.613 139.984 190.08 139.984 187.237C139.984 184.394 140.673 181.86 142.049 179.609V179.623Z" fill="#383838"/>
<path d="M187.788 200.121C185.371 198.868 183.463 197.116 182.071 194.871C180.679 192.626 179.983 190.086 179.983 187.243C179.983 184.4 180.679 181.867 182.071 179.615C183.463 177.37 185.371 175.618 187.788 174.365C190.204 173.113 192.902 172.486 195.873 172.486C198.845 172.486 201.582 173.113 203.998 174.365C206.415 175.618 208.315 177.37 209.691 179.615C211.068 181.86 211.756 184.4 211.756 187.243C211.756 190.086 211.068 192.619 209.691 194.871C208.315 197.116 206.415 198.868 203.998 200.121C201.582 201.373 198.868 202 195.873 202C192.878 202 190.212 201.373 187.788 200.121ZM202.301 197.995C204.202 197.003 205.703 195.575 206.806 193.717C207.908 191.859 208.456 189.699 208.456 187.25C208.456 184.801 207.908 182.648 206.806 180.804C205.703 178.96 204.202 177.539 202.301 176.547C200.401 175.554 198.259 175.062 195.873 175.062C193.488 175.062 191.346 175.554 189.445 176.547C187.545 177.539 186.044 178.96 184.941 180.804C183.839 182.648 183.291 184.801 183.291 187.25C183.291 189.699 183.839 191.859 184.941 193.717C186.044 195.575 187.545 197.003 189.445 197.995C191.346 198.988 193.488 199.48 195.873 199.48C198.259 199.48 200.401 198.988 202.301 197.995Z" fill="#383838"/>
<path d="M253.6 173.197V201.711H250.386V178.939L239.086 201.711H236.748L225.448 179.024V201.711H222.234V173.197H225.636L237.898 197.911L250.159 173.197H253.6Z" fill="#383838"/>
<path d="M283.316 187.123C281.509 188.636 278.796 189.396 275.191 189.396H268.716V201.711H265.502V172.824H275.191C278.772 172.824 281.478 173.584 283.3 175.097C285.122 176.61 286.029 178.623 286.029 181.128C286.029 183.633 285.122 185.603 283.324 187.123H283.316ZM282.714 181.135C282.714 179.207 282.119 177.743 280.923 176.751C279.726 175.759 277.818 175.266 275.183 175.266H268.708V186.919H275.183C280.203 186.919 282.714 184.991 282.714 181.135Z" fill="#383838"/>
<path d="M314.588 194.85H299.98L297.18 201.711H293.779L305.493 173.197H309.121L320.789 201.711H317.387L314.588 194.85ZM313.626 192.458L307.292 176.835L300.957 192.458H313.634H313.626Z" fill="#383838"/>
<path d="M354.727 201.711H351.513L333.738 177.412V201.711H330.524V172.824H333.738L351.513 197.081V172.824H354.727V201.711Z" fill="#383838"/>
<path d="M387.837 172.824L377.553 190.473V201.711H374.339V190.473L363.962 172.824H367.591L375.95 187.827L384.263 172.824H387.844H387.837Z" fill="#383838"/>
</g>
<defs>
<clipPath id="clip0_424_435">
<rect width="527.821" height="110.045" fill="white" transform="translate(0 91.9551)"/>
</clipPath>
</defs>
</svg>
