<svg width="28" height="29" viewBox="0 0 28 29" fill="none" xmlns="http://www.w3.org/2000/svg">
<path d="M14.0025 1.02148C6.5797 1.02148 0.5625 7.03868 0.5625 14.4615C0.5625 21.8843 6.5797 27.9015 14.0025 27.9015C21.4253 27.9015 27.4425 21.8843 27.4425 14.4615C27.4425 7.03868 21.4253 1.02148 14.0025 1.02148ZM10.7125 20.0321H7.9909V11.2737H10.7125V20.0321ZM9.3349 10.1985C8.4753 10.1985 7.9195 9.58948 7.9195 8.83628C7.9195 8.06768 8.4921 7.47688 9.3699 7.47688C10.2477 7.47688 10.7853 8.06768 10.8021 8.83628C10.8021 9.58948 10.2477 10.1985 9.3349 10.1985ZM20.6525 20.0321H17.9309V15.1783C17.9309 14.0485 17.5361 13.2813 16.5519 13.2813C15.8001 13.2813 15.3535 13.8007 15.1561 14.3005C15.0833 14.4783 15.0651 14.7303 15.0651 14.9809V20.0307H12.3421V14.0667C12.3421 12.9733 12.3071 12.0591 12.2707 11.2723H14.6353L14.7599 12.4889H14.8145C15.1729 11.9177 16.0507 11.0749 17.5193 11.0749C19.3099 11.0749 20.6525 12.2747 20.6525 14.8535V20.0321Z" fill="white"/>
</svg>
