<svg width="28" height="23" viewBox="0 0 28 23" fill="none" xmlns="http://www.w3.org/2000/svg">
<path fill-rule="evenodd" clip-rule="evenodd" d="M4.66406 0.914307C2.45492 0.914307 0.664062 2.70517 0.664062 4.91431V18.2476C0.664062 20.4568 2.45492 22.2476 4.66406 22.2476H23.3307C25.5399 22.2476 27.3307 20.4568 27.3307 18.2476V4.91431C27.3307 2.70517 25.5399 0.914307 23.3307 0.914307H4.66406ZM4.43142 3.6012C4.50696 3.58791 4.5847 3.58097 4.66406 3.58097H23.3307C23.4101 3.58097 23.4878 3.58791 23.5634 3.6012L13.9974 9.97853L4.43142 3.6012ZM3.33073 6.07234V18.2476C3.33073 18.984 3.92768 19.581 4.66406 19.581H23.3307C24.0671 19.581 24.6641 18.984 24.6641 18.2476V6.07237L14.737 12.6904C14.2891 12.989 13.7057 12.989 13.2578 12.6904L3.33073 6.07234Z" fill="#A0ABBB"/>
</svg>
