<svg width="24" height="22" viewBox="0 0 24 22" fill="none" xmlns="http://www.w3.org/2000/svg">
<path fill-rule="evenodd" clip-rule="evenodd" d="M1.97942 2.00284C1.59787 2.33693 1.24802 2.74674 1.02182 3.10358C0.73771 3.53973 0.527973 4.018 0.401523 4.51526L0.335719 4.81571C-0.701292 9.41749 0.615703 13.5341 4.96325 17.3095C7.81578 19.7867 9.97883 20.8047 12.9406 21.1763C13.4205 21.2365 13.9218 21.2817 14.5183 21.3204L15.7446 21.3855C16.429 21.4165 17.5693 21.4662 17.9586 21.4856C18.4713 21.5111 19.1496 21.4253 20.0612 21.2386L20.1993 21.2032C20.9951 20.9573 21.7217 20.5584 22.3301 20.0257C24.5566 18.0762 24.5566 14.9154 22.3301 12.9659L22.1318 12.8002C19.9795 11.086 16.6882 11.0704 14.5158 12.7616L14.2582 12.9655L12.8817 14.1708C12.5801 14.4349 12.1051 14.4707 11.7564 14.2555C11.0309 13.808 9.10323 12.1578 8.63268 11.5955C8.37689 11.2897 8.41403 10.8663 8.72014 10.5984L9.93288 9.53718L10.0366 9.46336L10.1906 9.33854C10.2184 9.31513 10.2467 9.29084 10.2748 9.26628C12.5655 7.26054 12.5655 4.00858 10.2748 2.00284C7.98407 -0.00290036 4.27012 -0.00290036 1.97942 2.00284ZM3.84006 3.63202C5.10315 2.52605 7.15103 2.52605 8.41413 3.63202C9.67722 4.73799 9.67722 6.53113 8.41413 7.63709C8.33598 7.70552 8.25458 7.76999 8.17014 7.83043L6.85998 8.96882C5.63541 10.0406 5.48685 11.7342 6.51003 12.9571C7.15038 13.7224 9.28346 15.5484 10.2409 16.1391L10.4256 16.2456C11.7998 16.9854 13.5882 16.8105 14.7424 15.7999L16.0149 14.6853L16.0323 14.6776L16.1549 14.5727C17.3559 13.5446 19.2803 13.5537 20.4695 14.5951C21.6684 15.6448 21.6684 17.3467 20.4695 18.3965L20.265 18.5604C20.0536 18.7153 19.822 18.8429 19.5753 18.9415L19.3762 19.0116L19.0379 19.0767L18.6807 19.1353C18.412 19.1746 18.2173 19.1907 18.1082 19.1853L15.4364 19.0639L14.7286 19.0236L14.1146 18.9784C13.8268 18.9542 13.5647 18.927 13.3138 18.8956C10.9428 18.5981 9.2858 17.8183 6.81621 15.6736C3.2278 12.5574 2.11555 9.33396 2.84874 5.58623L2.92544 5.2219C2.99495 4.84875 3.12368 4.52721 3.3151 4.23328C3.43164 4.04958 3.63432 3.81217 3.84006 3.63202Z" fill="#A0ABBB"/>
</svg>
