<svg width="28" height="29" viewBox="0 0 28 29" fill="none" xmlns="http://www.w3.org/2000/svg">
<path d="M14.0025 1.02148C6.5797 1.02148 0.5625 7.03868 0.5625 14.4615C0.5625 21.8843 6.5797 27.9015 14.0025 27.9015C21.4253 27.9015 27.4425 21.8843 27.4425 14.4615C27.4425 7.03868 21.4253 1.02148 14.0025 1.02148ZM19.4695 12.0311C19.4751 12.1459 19.4765 12.2607 19.4765 12.3727C19.4765 15.8727 16.8151 19.9061 11.9459 19.9061C10.5071 19.9085 9.09825 19.4952 7.8887 18.7161C8.0945 18.7413 8.3059 18.7511 8.5201 18.7511C9.7605 18.7511 10.9015 18.3297 11.8073 17.6185C11.2553 17.6076 10.7204 17.4249 10.2773 17.0956C9.83407 16.7664 9.50465 16.307 9.3349 15.7817C9.73132 15.8571 10.1397 15.8413 10.5291 15.7355C9.92997 15.6143 9.39118 15.2897 9.00409 14.8166C8.61701 14.3435 8.40545 13.7511 8.4053 13.1399V13.1077C8.7623 13.3051 9.1711 13.4255 9.6051 13.4395C9.04342 13.0656 8.6458 12.4912 8.49356 11.8339C8.34133 11.1765 8.44597 10.4858 8.7861 9.90308C9.45104 10.7207 10.2803 11.3895 11.2201 11.8663C12.1599 12.3431 13.1894 12.6172 14.2419 12.6709C14.1081 12.1029 14.1657 11.5067 14.4057 10.9748C14.6457 10.4429 15.0548 10.0053 15.5692 9.72985C16.0836 9.45444 16.6746 9.3567 17.2504 9.45182C17.8261 9.54695 18.3542 9.82962 18.7527 10.2559C19.3451 10.1387 19.9133 9.92136 20.4327 9.61328C20.2352 10.2267 19.8218 10.7475 19.2693 11.0791C19.7941 11.0159 20.3065 10.8748 20.7897 10.6605C20.4348 11.1923 19.9877 11.6565 19.4695 12.0311Z" fill="white"/>
</svg>
