<svg width="28" height="29" viewBox="0 0 28 29" fill="none" xmlns="http://www.w3.org/2000/svg">
<path d="M16.2467 14.2277L13.1023 12.7605C12.8279 12.6331 12.6025 12.7759 12.6025 13.0797V15.8433C12.6025 16.1471 12.8279 16.2899 13.1023 16.1625L16.2453 14.6953C16.5211 14.5665 16.5211 14.3565 16.2467 14.2277ZM14.0025 1.02148C6.5797 1.02148 0.5625 7.03868 0.5625 14.4615C0.5625 21.8843 6.5797 27.9015 14.0025 27.9015C21.4253 27.9015 27.4425 21.8843 27.4425 14.4615C27.4425 7.03868 21.4253 1.02148 14.0025 1.02148ZM14.0025 19.9215C7.1229 19.9215 7.0025 19.3013 7.0025 14.4615C7.0025 9.62168 7.1229 9.00148 14.0025 9.00148C20.8821 9.00148 21.0025 9.62168 21.0025 14.4615C21.0025 19.3013 20.8821 19.9215 14.0025 19.9215Z" fill="white"/>
</svg>
