<svg width="236" height="55" viewBox="0 0 236 55" fill="none" xmlns="http://www.w3.org/2000/svg">
<g clip-path="url(#clip0_1198_8249)">
<path d="M21.6961 25.1033V20.2506C20.8156 22.0551 19.5858 23.3998 18.0101 24.2881C16.4344 25.1765 14.5548 25.6224 12.3781 25.6224C10.8234 25.6224 9.30707 25.3402 7.8222 24.7724C6.33734 24.2045 5.01668 23.3789 3.85674 22.292C2.6968 21.2051 1.76396 19.8639 1.05821 18.2718C0.352461 16.6763 -0.00390625 14.8509 -0.00390625 12.7955C-0.00390625 10.7402 0.348967 8.91819 1.05821 7.33312C1.76396 5.75154 2.6968 4.41381 3.85674 3.33039C5.01668 2.24348 6.33734 1.41785 7.8222 0.850015C9.30707 0.285661 10.8234 0 12.3781 0C13.5381 0 14.7015 0.156765 15.8719 0.466812C17.0423 0.780342 18.1534 1.24715 19.2085 1.87073C20.2636 2.49431 21.2139 3.27465 22.0594 4.21176C22.9049 5.14886 23.5722 6.25319 24.0579 7.52124H20.5816C20.2322 6.43434 19.757 5.46588 19.1561 4.60889C18.5517 3.75539 17.8808 3.03776 17.1402 2.45947C16.3995 1.88118 15.6204 1.44224 14.8098 1.14264C13.9992 0.843048 13.1887 0.69325 12.3746 0.69325C11.2846 0.69325 10.2259 0.982395 9.19177 1.56068C8.1611 2.13897 7.23874 2.95415 6.42818 4.00622C5.61762 5.05829 4.96078 6.32983 4.46466 7.82084C3.96505 9.31185 3.71699 10.9701 3.71699 12.7955C3.71699 14.621 3.96505 16.2792 4.46466 17.7702C4.96427 19.2612 5.61762 20.5397 6.42818 21.6022C7.23874 22.6647 8.1611 23.4869 9.19177 24.0652C10.2224 24.6435 11.2846 24.9326 12.3746 24.9326C13.6044 24.9326 14.7504 24.7549 15.816 24.3961C16.8816 24.0373 17.8284 23.459 18.6495 22.6613C19.4705 21.8635 20.1518 20.8114 20.6829 19.5051C21.2174 18.1987 21.5528 16.6101 21.6926 14.7394V13.3877H17.4511C16.361 13.3877 15.3129 13.5898 14.3032 13.9939C13.2935 14.398 12.3956 15.0738 11.6095 16.0214L12.2698 12.7955H24.6833V25.0685L21.6926 25.1033H21.6961Z" fill="#41C7DF"/>
<path d="M47.4282 16.3841C47.4282 17.8403 47.2326 19.1223 46.8378 20.2336C46.443 21.3414 45.8805 22.2785 45.1503 23.0414C44.4201 23.8043 43.5396 24.3826 42.509 24.7763C41.4783 25.17 40.3358 25.365 39.085 25.365C37.8343 25.365 36.6324 25.17 35.4864 24.7763C34.3405 24.3826 33.3203 23.8043 32.4259 23.0414C31.5349 22.2785 30.8257 21.3414 30.3051 20.2336C29.7846 19.1258 29.5225 17.8403 29.5225 16.3841V3.73145C29.5225 3.10788 29.4526 2.48778 29.3129 1.87814C29.1731 1.26502 28.9775 0.752916 28.7224 0.334876V0.300039L28.6875 0.265202H33.8688L33.8339 0.300039V0.369712C33.5544 0.784269 33.3343 1.29985 33.1735 1.91298C33.0128 2.5261 32.929 3.13226 32.929 3.73494V16.3911C32.929 17.3143 33.0513 18.2688 33.2958 19.2512C33.5404 20.2336 33.9142 21.1289 34.4243 21.9371C34.9344 22.7453 35.5773 23.4037 36.3529 23.9123C37.1285 24.421 38.0509 24.6753 39.1165 24.6753C40.2764 24.6753 41.3246 24.4837 42.2644 24.1039C43.2042 23.7242 44.0043 23.1808 44.6646 22.4736C45.325 21.7699 45.8351 20.9025 46.1949 19.8748C46.5548 18.8471 46.733 17.6835 46.733 16.3911V3.69662C46.733 3.16361 46.6701 2.58881 46.5408 1.96175C46.4115 1.33817 46.2438 0.784269 46.0377 0.296555V0.261719H48.1235V0.296555C47.9139 0.780785 47.7462 1.33817 47.6204 1.96175C47.4911 2.58533 47.4282 3.16361 47.4282 3.69662V16.3876V16.3841Z" fill="#41C7DF"/>
<path d="M56.5705 24.5145H61.4024C62.4226 24.5145 63.2786 24.4448 63.9739 24.3055C64.6691 24.1661 65.2771 23.9397 65.7976 23.6296C66.3182 23.3161 66.7899 22.919 67.2056 22.4347C67.6214 21.9505 68.0511 21.3583 68.4913 20.665L67.5166 25.1032H52.2871L52.322 25.0684V25.0336C52.5771 24.6399 52.7797 24.1452 52.93 23.5425C53.0802 22.9434 53.1571 22.3163 53.1571 21.6718V3.95387C53.1571 3.3303 53.0802 2.7102 52.93 2.10056C52.7797 1.48744 52.5771 0.985789 52.322 0.592134V0.557298L52.2871 0.522461H57.4684L57.3636 0.696644C57.1086 1.0903 56.9129 1.58846 56.7731 2.18765C56.6334 2.79033 56.5635 3.39997 56.5635 4.02355V24.5145H56.5705Z" fill="#41C7DF"/>
<path d="M71.9062 25.1038L71.9761 25.0341C72.2312 24.6405 72.4268 24.1493 72.5666 23.5605C72.7063 22.9718 72.7762 22.3412 72.7762 21.6724V3.88476C72.7762 3.28556 72.6993 2.67592 72.5491 2.0628C72.3989 1.44967 72.1823 0.937571 71.9062 0.519531H87.0658L87.8659 5.13191C87.4956 4.3237 87.0903 3.65832 86.6501 3.13925C86.2099 2.62018 85.7452 2.20911 85.2595 1.90952C84.7739 1.60992 84.2638 1.4009 83.7293 1.28594C83.1947 1.17098 82.6637 1.11175 82.1291 1.11175H76.808C76.6438 1.50541 76.5111 1.95132 76.4098 2.446C76.3049 2.94416 76.2525 3.42143 76.2525 3.88476V12.2734H82.9292C83.3939 12.2734 83.8201 11.9947 84.2149 11.4408C84.6097 10.8869 84.9102 10.1937 85.1198 9.36108V15.8094C85.0255 15.4401 84.9067 15.0743 84.7564 14.719C84.6062 14.3601 84.4385 14.0431 84.2533 13.7644C84.0682 13.4857 83.8655 13.2663 83.6454 13.106C83.4253 12.9458 83.1877 12.8622 82.9327 12.8622H76.256V21.7386C76.256 21.9685 76.2805 22.2367 76.3259 22.5363C76.3713 22.8359 76.4307 23.1425 76.5006 23.456C76.5705 23.7695 76.6508 24.0691 76.7452 24.3583C76.836 24.6474 76.9408 24.8948 77.0596 25.1038H71.9132H71.9062Z" fill="#41C7DF"/>
<path d="M104.034 21.6021C104.034 22.2257 104.108 22.8458 104.261 23.4555C104.412 24.0686 104.614 24.5807 104.869 24.9987L104.904 25.0684L104.939 25.1032H99.7578L99.8277 25.0336C100.083 24.6399 100.278 24.1487 100.418 23.56C100.558 22.9712 100.628 22.3407 100.628 21.6718V3.95387C100.628 3.3303 100.558 2.7102 100.418 2.10056C100.278 1.48744 100.083 0.985789 99.8277 0.592134L99.7578 0.522461H104.939L104.904 0.557298L104.869 0.626971C104.614 1.04153 104.412 1.55711 104.261 2.17024C104.111 2.78336 104.034 3.39997 104.034 4.02355V12.0673L116.622 12.1022V4.02355C116.622 3.39997 116.546 2.77988 116.395 2.17024C116.245 1.55711 116.042 1.04501 115.787 0.626971L115.752 0.557298L115.717 0.522461H120.899L120.829 0.592134C120.574 0.985789 120.378 1.47699 120.238 2.06573C120.099 2.65447 120.029 3.28501 120.029 3.95387V21.6718C120.029 22.2954 120.099 22.9155 120.238 23.5251C120.378 24.1383 120.574 24.6399 120.829 25.0336L120.899 25.1032H115.717L115.752 25.0684L115.787 24.9987C116.042 24.5842 116.245 24.0686 116.395 23.4555C116.546 22.8423 116.622 22.2257 116.622 21.6021V12.7954L104.034 12.7606V21.6021Z" fill="#41C7DF"/>
<path d="M124.724 12.7955C124.724 10.7402 125.077 8.91819 125.786 7.33312C126.492 5.75154 127.425 4.41381 128.585 3.33039C129.745 2.24348 131.065 1.41785 132.55 0.850015C134.032 0.285661 135.548 0 137.103 0C138.657 0 140.174 0.282177 141.659 0.850015C143.143 1.41785 144.464 2.24348 145.624 3.33039C146.784 4.41729 147.717 5.75154 148.423 7.33312C149.128 8.91819 149.485 10.7367 149.485 12.7955C149.485 14.8544 149.132 16.6798 148.423 18.2718C147.717 19.8674 146.784 21.2086 145.624 22.292C144.464 23.3789 143.143 24.2045 141.659 24.7724C140.174 25.3402 138.657 25.6224 137.103 25.6224C135.548 25.6224 134.032 25.3402 132.547 24.7724C131.062 24.2045 129.741 23.3789 128.581 22.292C127.421 21.2051 126.489 19.8639 125.783 18.2718C125.077 16.6763 124.721 14.8509 124.721 12.7955H124.724ZM128.445 12.7955C128.445 14.621 128.693 16.2792 129.193 17.7702C129.692 19.2612 130.346 20.5397 131.156 21.6022C131.967 22.6647 132.889 23.4869 133.92 24.0652C134.951 24.6435 136.013 24.9326 137.103 24.9326C138.193 24.9326 139.251 24.6435 140.286 24.0652C141.316 23.4869 142.239 22.6682 143.049 21.6022C143.86 20.5397 144.517 19.2612 145.013 17.7702C145.512 16.2792 145.76 14.621 145.76 12.7955C145.76 10.9701 145.512 9.31185 145.013 7.82084C144.513 6.32983 143.86 5.05829 143.049 4.00622C142.239 2.95415 141.316 2.13897 140.286 1.56068C139.255 0.982395 138.193 0.69325 137.103 0.69325C136.013 0.69325 134.954 0.982395 133.92 1.56068C132.889 2.13897 131.967 2.95415 131.156 4.00622C130.346 5.05829 129.689 6.32983 129.193 7.82084C128.693 9.31185 128.445 10.9701 128.445 12.7955Z" fill="#41C7DF"/>
<path d="M161.269 1.1112C160.528 1.1112 159.721 1.153 158.851 1.23313C157.982 1.31325 157.146 1.46305 156.346 1.68252C155.546 1.90199 154.834 2.20159 154.208 2.58479C153.583 2.96451 153.129 3.46964 152.853 4.09322L152.332 5.2707L153.377 0.522461H172.572L173.616 5.2707L172.921 3.98871C172.596 3.38952 172.121 2.89484 171.496 2.51512C170.87 2.1354 170.175 1.83929 169.41 1.63027C168.645 1.42125 167.851 1.2819 167.027 1.21571C166.202 1.14604 165.42 1.1112 164.679 1.1112V21.6718C164.679 22.2954 164.752 22.9155 164.906 23.5251C165.056 24.1382 165.259 24.6399 165.514 25.0336V25.0684L165.549 25.1032H160.368L160.473 24.929C160.728 24.5354 160.923 24.0407 161.063 23.438C161.203 22.8388 161.273 22.2257 161.273 21.6021V1.1112H161.269Z" fill="#41C7DF"/>
<path d="M192.285 25.1038H177.125L177.195 25.0341C177.45 24.6405 177.646 24.1493 177.785 23.5605C177.925 22.9718 177.995 22.3412 177.995 21.6724V3.88476C177.995 3.28556 177.918 2.67592 177.768 2.0628C177.618 1.44967 177.401 0.937571 177.125 0.519531H192.285L193.085 5.13191C192.714 4.3237 192.309 3.65832 191.869 3.13925C191.429 2.62018 190.964 2.20911 190.478 1.90952C189.993 1.60992 189.483 1.4009 188.948 1.28594C188.413 1.17098 187.882 1.11175 187.348 1.11175H182.027C181.866 1.50541 181.73 1.95132 181.629 2.446C181.524 2.94416 181.471 3.42143 181.471 3.88476V12.2734H188.148C188.613 12.2734 189.039 11.9947 189.434 11.4408C189.828 10.8869 190.129 10.1937 190.339 9.36108V15.8094C190.244 15.4401 190.125 15.0743 189.972 14.719C189.821 14.3601 189.654 14.0431 189.469 13.7644C189.283 13.4857 189.081 13.2663 188.861 13.106C188.641 12.9458 188.403 12.8622 188.148 12.8622H181.471V21.7386C181.471 22.2019 181.531 22.6757 181.646 23.1599C181.761 23.6441 181.936 24.0831 182.167 24.4767H187.348C188.113 24.4767 188.773 24.414 189.329 24.2851C189.884 24.1597 190.384 23.9437 190.824 23.6441C191.264 23.3445 191.663 22.9404 192.023 22.4318C192.382 21.9232 192.735 21.2752 193.085 20.4914L192.285 25.1038Z" fill="#41C7DF"/>
<path d="M201.606 24.5145H206.438C207.458 24.5145 208.314 24.4448 209.009 24.3055C209.705 24.1661 210.313 23.9397 210.837 23.6296C211.357 23.3161 211.829 22.919 212.245 22.4347C212.66 21.9505 213.09 21.3583 213.53 20.665L212.556 25.1032H197.326L197.361 25.0684V25.0336C197.616 24.6399 197.819 24.1452 197.969 23.5425C198.119 22.9434 198.196 22.3163 198.196 21.6718V3.95387C198.196 3.3303 198.119 2.7102 197.969 2.10056C197.819 1.48744 197.616 0.985789 197.361 0.592134V0.557298L197.326 0.522461H202.507L202.403 0.696644C202.148 1.0903 201.952 1.58846 201.812 2.18765C201.672 2.79033 201.603 3.39997 201.603 4.02355V24.5145H201.606Z" fill="#41C7DF"/>
<path d="M234.916 7.49359C234.591 6.87001 234.144 6.15934 233.578 5.36158C233.008 4.56382 232.33 3.81484 231.544 3.10765C230.755 2.40395 229.888 1.80127 228.938 1.30311C227.987 0.804946 226.967 0.557605 225.877 0.557605C225.182 0.557605 224.487 0.669082 223.791 0.888554C223.096 1.10802 222.471 1.42155 221.915 1.82566C221.36 2.22977 220.905 2.72793 220.56 3.31667C220.21 3.90541 220.039 4.57079 220.039 5.30933C220.039 6.2325 220.231 6.99194 220.612 7.58068C220.996 8.16942 221.492 8.66759 222.107 9.07169C222.722 9.4758 223.418 9.82416 224.193 10.1133C224.969 10.4025 225.741 10.709 226.506 11.033C228.057 11.6566 229.42 12.2279 230.59 12.7504C231.761 13.2695 232.735 13.8025 233.511 14.346C234.287 14.8894 234.867 15.4782 235.251 16.1157C235.632 16.7532 235.824 17.4987 235.824 18.3522C235.824 19.2997 235.586 20.2125 235.111 21.0903C234.636 21.9682 233.969 22.7416 233.113 23.414C232.253 24.0828 231.23 24.6228 230.035 25.0269C228.84 25.431 227.526 25.6331 226.087 25.6331C224.857 25.6331 223.718 25.4833 222.663 25.1837C221.608 24.8841 220.664 24.5009 219.829 24.041C218.994 23.5777 218.275 23.0691 217.674 22.5152C217.069 21.9613 216.608 21.4283 216.283 20.9196V16.8647C216.954 18.1362 217.684 19.2754 218.474 20.2787C219.26 21.2854 220.074 22.1285 220.909 22.8113C221.744 23.4941 222.583 24.0201 223.432 24.3894C224.277 24.7586 225.095 24.9572 225.884 24.9781C226.81 25.0025 227.687 24.8806 228.508 24.6158C229.329 24.3511 230.049 23.9922 230.664 23.5394C231.279 23.09 231.764 22.5744 232.124 21.9961C232.484 21.4178 232.662 20.8291 232.662 20.2264C232.662 19.7875 232.582 19.3311 232.418 18.8573C232.257 18.3835 231.935 17.9028 231.46 17.4186C230.985 16.9343 230.314 16.4362 229.444 15.9276C228.574 15.4189 227.446 14.9103 226.055 14.4017C224.874 13.9871 223.742 13.5691 222.666 13.1545C221.587 12.74 220.633 12.2662 219.798 11.7332C218.963 11.2002 218.296 10.5836 217.8 9.8799C217.3 9.1762 217.052 8.32619 217.052 7.33334C217.052 6.34049 217.272 5.44519 217.712 4.57776C218.152 3.71033 218.757 2.94392 219.522 2.27157C220.287 1.60271 221.195 1.06274 222.251 0.658632C223.306 0.254526 224.459 0.0420222 225.709 0.0176365C226.66 -0.00674921 227.603 0.0594405 228.543 0.209238C229.483 0.359036 230.356 0.568056 231.167 0.832815C231.977 1.09757 232.715 1.41807 233.375 1.78734C234.035 2.15661 234.563 2.56071 234.958 2.99966L234.923 7.50752L234.916 7.49359Z" fill="#41C7DF"/>
<path d="M63.4653 43.4001C64.0802 42.2888 64.9222 41.4213 65.9879 40.8012C67.0535 40.1811 68.2448 39.8711 69.5585 39.8711C71.1587 39.8711 72.5317 40.2508 73.6707 41.0068C74.8132 41.7627 75.6447 42.8322 76.1653 44.2083H74.4813C74.0725 43.2398 73.4436 42.4838 72.6051 41.9369C71.7631 41.39 70.7499 41.1182 69.5585 41.1182C68.5034 41.1182 67.5566 41.3621 66.7181 41.8533C65.8761 42.3445 65.2157 43.0517 64.7371 43.9714C64.2584 44.8911 64.0174 45.9605 64.0174 47.1729C64.0174 48.3852 64.2549 49.4512 64.7371 50.3639C65.2157 51.2766 65.8761 51.9803 66.7181 52.4715C67.5601 52.9627 68.5069 53.2066 69.5585 53.2066C70.7499 53.2066 71.7631 52.9383 72.6051 52.3984C73.4471 51.8584 74.0725 51.1129 74.4813 50.1584H76.1653C75.6447 51.524 74.8097 52.5795 73.6637 53.3285C72.5143 54.0775 71.1482 54.4537 69.5585 54.4537C68.2448 54.4537 67.057 54.1437 65.9879 53.5236C64.9222 52.9035 64.0802 52.0396 63.4653 50.9352C62.8504 49.8309 62.543 48.5768 62.543 47.1694C62.543 45.762 62.8504 44.5079 63.4653 43.3931V43.4001Z" fill="#41C7DF"/>
<path d="M83.9009 53.5476C82.8213 52.9275 81.9688 52.06 81.3469 50.9487C80.725 49.8374 80.4141 48.5798 80.4141 47.1724C80.4141 45.765 80.725 44.5109 81.3469 43.3961C81.9688 42.2849 82.8213 41.4174 83.9009 40.7973C84.9805 40.1772 86.1858 39.8672 87.5135 39.8672C88.8411 39.8672 90.0639 40.1772 91.1435 40.7973C92.2231 41.4174 93.0721 42.2849 93.687 43.3961C94.3019 44.5074 94.6094 45.765 94.6094 47.1724C94.6094 48.5798 94.3019 49.834 93.687 50.9487C93.0721 52.06 92.2231 52.9275 91.1435 53.5476C90.0639 54.1676 88.8516 54.4777 87.5135 54.4777C86.1753 54.4777 84.9839 54.1676 83.9009 53.5476ZM90.3854 52.4955C91.2344 52.0043 91.9052 51.2971 92.3978 50.3774C92.8904 49.4577 93.135 48.3882 93.135 47.1759C93.135 45.9636 92.8904 44.8976 92.3978 43.9849C91.9052 43.0722 91.2344 42.3685 90.3854 41.8773C89.5364 41.3861 88.5791 41.1422 87.5135 41.1422C86.4478 41.1422 85.4905 41.3861 84.6416 41.8773C83.7926 42.3685 83.1218 43.0722 82.6291 43.9849C82.1365 44.8976 81.8919 45.9636 81.8919 47.1759C81.8919 48.3882 82.1365 49.4577 82.6291 50.3774C83.1218 51.2971 83.7926 52.0043 84.6416 52.4955C85.4905 52.9867 86.4478 53.2305 87.5135 53.2305C88.5791 53.2305 89.5364 52.9867 90.3854 52.4955Z" fill="#41C7DF"/>
<path d="M113.305 40.2188V54.3346H111.869V43.0614L106.82 54.3346H105.776L100.727 43.1032V54.3346H99.291V40.2188H100.811L106.289 52.4534L111.767 40.2188H113.305Z" fill="#41C7DF"/>
<path d="M126.58 47.113C125.773 47.862 124.561 48.2382 122.95 48.2382H120.057V54.3346H118.621V40.0342H122.95C124.55 40.0342 125.759 40.4104 126.573 41.1594C127.387 41.9084 127.792 42.9047 127.792 44.1449C127.792 45.3851 127.387 46.3605 126.583 47.113H126.58ZM126.311 44.1484C126.311 43.1939 126.045 42.4693 125.511 41.9781C124.976 41.4869 124.124 41.243 122.946 41.243H120.054V47.012H122.946C125.189 47.012 126.311 46.0574 126.311 44.1484Z" fill="#41C7DF"/>
<path d="M140.553 50.938H134.026L132.776 54.3346H131.256L136.49 40.2188H138.111L143.323 54.3346H141.804L140.553 50.938ZM140.123 49.7536L137.293 42.0198L134.463 49.7536H140.127H140.123Z" fill="#41C7DF"/>
<path d="M158.487 54.3346H157.051L149.11 42.3055V54.3346H147.674V40.0342H149.11L157.051 52.0424V40.0342H158.487V54.3346Z" fill="#41C7DF"/>
<path d="M173.28 40.0342L168.686 48.7712V54.3346H167.25V48.7712L162.613 40.0342H164.234L167.969 47.4614L171.683 40.0342H173.283H173.28Z" fill="#41C7DF"/>
</g>
<defs>
<clipPath id="clip0_1198_8249">
<rect width="235.821" height="54.4776" fill="white"/>
</clipPath>
</defs>
</svg>
