<svg width="1440" height="750" viewBox="0 0 1440 750" fill="none" xmlns="http://www.w3.org/2000/svg">
<path d="M864.59 469.361V750H975.581V659.381C921.842 608.803 882.503 544.526 864.59 469.361Z" fill="#E5E8EE"/>
<path d="M519.697 95.285C540.772 115.306 559.036 133.219 585.73 176.421C585.73 176.421 616.99 176.421 630.688 176.421V0.0996094H519.697V95.285Z" fill="#E5E8EE"/>
<path d="M517.939 291.623H461.741H405.543V407.18H517.939C502.836 535.382 397.815 634.431 270.667 634.431C132.982 634.431 21.6399 518.522 21.6399 375.217C21.6399 232.264 133.333 116.004 270.667 116.004C331.432 116.004 386.927 138.483 430.129 176.066H575.19C511.616 70.6943 398.869 0.798035 270.667 0.798035C71.8669 1.14927 -89 168.69 -89 375.217C-89 581.745 71.8669 749.285 270.667 749.285C367.258 749.285 455.067 709.596 519.695 644.968V749.637H630.686V291.623C626.471 291.623 576.244 291.623 574.488 291.623H517.939Z" fill="#E5E8EE"/>
<path d="M864.622 407.18C882.886 604.927 1041.29 749.637 1224.29 749.637C1236.93 749.637 1249.23 748.583 1260.82 747.178C1373.92 735.236 1471.21 668.852 1528.81 574.018H1383.75C1340.55 611.6 1285.05 634.079 1224.29 634.079C1194.43 634.079 1165.63 628.46 1138.94 618.625C1138.24 618.274 1137.53 617.922 1136.83 617.922C1134.02 616.869 1131.21 615.464 1128.05 614.41C1126.29 613.708 1124.54 612.654 1122.43 611.951C1120.67 611.249 1119.27 610.547 1117.51 609.844C1114.7 608.439 1111.89 607.034 1109.08 605.629C1108.38 605.278 1108.03 604.927 1107.33 604.575C1031.11 562.427 978.423 480.589 974.911 385.754H974.559V360.114C974.911 352.036 975.964 343.606 977.018 335.527C978.423 327.098 979.828 318.668 981.935 310.238C985.096 297.945 988.96 285.652 993.526 274.061C1001.25 254.743 1011.44 236.478 1023.38 219.97C1025.84 216.809 1028.3 213.297 1030.76 210.136C1035.67 203.813 1041.29 197.491 1046.91 191.871C1049.72 189.061 1052.53 186.251 1055.7 183.442C1064.48 175.012 1073.96 167.285 1083.79 160.26C1123.48 132.161 1171.6 116.004 1223.24 116.004C1284 116.004 1339.5 138.483 1382.7 176.066H1527.76C1465.24 70.6943 1352.49 0.798035 1224.29 0.798035C1127.7 0.798035 1040.24 40.4879 975.613 104.764V1.50051H864.622V291.623H641.586C641.586 346.065 641.586 395.589 641.586 407.18H864.622Z" fill="#E5E8EE"/>
</svg>
