<svg width="117" height="54" viewBox="0 0 117 54" fill="none" xmlns="http://www.w3.org/2000/svg">
<path d="M68.668 33.7914V54.0002H76.6604V47.4747C72.7907 43.8326 69.9579 39.204 68.668 33.7914Z" fill="#FFFFFF"/>
<path d="M43.832 6.8543C45.3496 8.29598 46.6648 9.5859 48.587 12.6969C48.587 12.6969 50.8381 12.6969 51.8245 12.6969V0H43.832V6.8543Z" fill="#FFFFFF"/>
<path d="M43.7056 20.9927H39.6588H35.612V29.314H43.7056C42.618 38.5458 35.0556 45.6783 25.8996 45.6783C15.9849 45.6783 7.96717 37.3317 7.96717 27.0123C7.96717 16.7182 16.0102 8.34639 25.8996 8.34639C30.2752 8.34639 34.2715 9.96512 37.3825 12.6714H47.8283C43.2504 5.08364 35.1314 0.050415 25.8996 0.050415C11.584 0.0757076 0 12.1403 0 27.0123C0 41.8844 11.584 53.949 25.8996 53.949C32.8551 53.949 39.1782 51.0909 43.8321 46.437V53.9742H51.8246V20.9927C51.521 20.9927 47.9042 20.9927 47.7777 20.9927H43.7056Z" fill="#FFFFFF"/>
<path d="M68.6702 29.314C69.9854 43.5537 81.3924 53.9742 94.5698 53.9742C95.4803 53.9742 96.3656 53.8984 97.2002 53.7972C105.344 52.9373 112.351 48.1569 116.499 41.3279H106.053C102.942 44.0343 98.9454 45.653 94.5698 45.653C92.4199 45.653 90.3459 45.2483 88.4237 44.5401C88.3731 44.5148 88.3225 44.4895 88.2719 44.4895C88.0696 44.4136 87.8673 44.3125 87.6396 44.2366C87.5132 44.186 87.3867 44.1101 87.235 44.0595C87.1085 44.009 87.0073 43.9584 86.8809 43.9078C86.6785 43.8066 86.4762 43.7055 86.2738 43.6043C86.2232 43.579 86.198 43.5537 86.1474 43.5284C80.6589 40.4933 76.865 34.6001 76.6121 27.7711H76.5868V25.9248C76.6121 25.343 76.6879 24.736 76.7638 24.1543C76.865 23.5472 76.9662 22.9402 77.1179 22.3332C77.3455 21.448 77.6238 20.5627 77.9526 19.7281C78.509 18.337 79.2425 17.0218 80.1024 15.833C80.2795 15.6054 80.4565 15.3524 80.6336 15.1248C80.9877 14.6695 81.3924 14.2143 81.797 13.8096C81.9994 13.6073 82.2017 13.4049 82.4294 13.2026C83.0617 12.5955 83.7446 12.0391 84.4528 11.5333C87.3108 9.50985 90.7759 8.34639 94.4939 8.34639C98.8696 8.34639 102.866 9.96512 105.977 12.6714H116.423C111.921 5.08364 103.802 0.050415 94.5698 0.050415C87.6143 0.050415 81.3165 2.90848 76.6626 7.53703V0.101H68.6702V20.9927H52.6094C52.6094 24.913 52.6094 28.4793 52.6094 29.314H68.6702Z" fill="#FFFFFF"/>
</svg>
