<svg width="32" height="32" viewBox="0 0 32 32" fill="none" xmlns="http://www.w3.org/2000/svg">
<path fill-rule="evenodd" clip-rule="evenodd" d="M16.0013 5.33329C12.3194 5.33329 9.33464 8.31806 9.33464 12C9.33464 15.7172 11.4836 21.1564 16.0013 26.0737C20.519 21.1564 22.668 15.7172 22.668 12C22.668 8.31806 19.6832 5.33329 16.0013 5.33329ZM6.66797 12C6.66797 6.8453 10.8466 2.66663 16.0013 2.66663C21.156 2.66663 25.3346 6.8453 25.3346 12C25.3346 16.8696 22.4487 23.4382 16.9441 28.9428C16.4234 29.4635 15.5792 29.4635 15.0585 28.9428C9.5539 23.4382 6.66797 16.8696 6.66797 12Z" fill="#A0ABBB"/>
<path fill-rule="evenodd" clip-rule="evenodd" d="M16.0013 13.3333C16.7377 13.3333 17.3346 12.7363 17.3346 12C17.3346 11.2636 16.7377 10.6666 16.0013 10.6666C15.2649 10.6666 14.668 11.2636 14.668 12C14.668 12.7363 15.2649 13.3333 16.0013 13.3333ZM16.0013 16C18.2104 16 20.0013 14.2091 20.0013 12C20.0013 9.79082 18.2104 7.99996 16.0013 7.99996C13.7922 7.99996 12.0013 9.79082 12.0013 12C12.0013 14.2091 13.7922 16 16.0013 16Z" fill="#A0ABBB"/>
</svg>
