<svg width="30" height="29" viewBox="0 0 30 29" fill="none" xmlns="http://www.w3.org/2000/svg">
<path d="M14.7489 28.9601C13.8495 28.9601 12.9486 28.8799 12.0708 28.7217C8.72229 28.1186 5.66452 26.3707 3.46008 23.7994C2.36476 22.5223 1.51028 21.0843 0.920437 19.5262C0.30988 17.9136 0 16.2158 0 14.48C0 12.5255 0.390035 10.6293 1.15937 8.84346C1.90224 7.11897 2.96572 5.5707 4.31992 4.24118C5.67411 2.91167 7.25151 1.86757 9.00763 1.13824C10.8266 0.382927 12.758 0 14.7489 0C16.7397 0 18.6711 0.382927 20.4901 1.13824C22.2466 1.86757 23.8236 2.91167 25.1778 4.24118C26.532 5.5707 27.5955 7.11935 28.3383 8.84346C29.1077 10.6289 29.4977 12.5255 29.4977 14.48C29.4977 18.051 28.1623 21.4812 25.7373 24.1387C23.3315 26.7751 20.0437 28.4522 16.4793 28.8614C15.909 28.927 15.3268 28.9601 14.7489 28.9601ZM14.7489 1.35549C7.37769 1.35549 1.38066 7.24322 1.38066 14.48C1.38066 20.8181 5.98131 26.2468 12.32 27.3885C13.1155 27.5319 13.9327 27.6046 14.7489 27.6046C15.2735 27.6046 15.802 27.5745 16.319 27.515C23.0451 26.7427 28.1171 21.1389 28.1171 14.48C28.1171 7.24322 22.12 1.35549 14.7489 1.35549Z" fill="#282A37"/>
<path d="M16.2808 12.1207V14.6736H20.1885L19.5422 18.6075H16.2808V28.1856C15.7232 28.2496 15.1556 28.2827 14.5803 28.2827C13.6817 28.2827 12.8023 28.2025 11.9494 28.0485V18.6075H8.39844V14.6736H11.9494V11.6753C11.9494 8.26475 14.0189 6.38062 17.1848 6.38062C18.7016 6.38062 20.2878 6.64644 20.2878 6.64644V9.99564H18.5401C16.8181 9.99564 16.2812 11.0446 16.2812 12.1207H16.2808Z" fill="#282A37"/>
</svg>
