<svg width="32" height="32" viewBox="0 0 32 32" fill="none" xmlns="http://www.w3.org/2000/svg">
<path d="M9.66797 9.33335H22.3346V6.66669C22.3346 4.00002 21.3346 2.66669 18.3346 2.66669H13.668C10.668 2.66669 9.66797 4.00002 9.66797 6.66669V9.33335Z" stroke="#A0ABBB" stroke-width="2.7" stroke-linecap="round" stroke-linejoin="round"/>
<path d="M21.3346 20V25.3333C21.3346 28 20.0013 29.3333 17.3346 29.3333H14.668C12.0013 29.3333 10.668 28 10.668 25.3333V20H21.3346Z" stroke="#A0ABBB" stroke-width="2.7" stroke-linecap="round" stroke-linejoin="round"/>
<path d="M28 13.3333V20C28 22.6666 26.6667 24 24 24H21.3333V20H10.6667V24H8C5.33333 24 4 22.6666 4 20V13.3333C4 10.6666 5.33333 9.33331 8 9.33331H24C26.6667 9.33331 28 10.6666 28 13.3333Z" stroke="#A0ABBB" stroke-width="2.7" stroke-linecap="round" stroke-linejoin="round"/>
<path d="M22.6654 20H21.052H9.33203" stroke="#A0ABBB" stroke-width="2.7" stroke-linecap="round" stroke-linejoin="round"/>
<path d="M9.33203 14.6667H13.332" stroke="#A0ABBB" stroke-width="2.7" stroke-linecap="round" stroke-linejoin="round"/>
</svg>
