<svg width="30" height="30" viewBox="0 0 30 30" fill="none" xmlns="http://www.w3.org/2000/svg">
<path d="M14.7489 29.9445C13.8495 29.9445 12.9486 29.8643 12.0708 29.7061C8.72229 29.1029 5.66452 27.3551 3.46008 24.7838C2.36476 23.5066 1.51028 22.0687 0.920437 20.5106C0.309497 18.898 0 17.2002 0 15.4644C0 13.5099 0.390037 11.6137 1.15937 9.82783C1.90224 8.10334 2.96572 6.55507 4.31992 5.22556C5.67411 3.89605 7.25151 2.85194 9.00763 2.12261C10.8263 1.3673 12.758 0.984375 14.7489 0.984375C16.7397 0.984375 18.6711 1.3673 20.4901 2.12261C22.2466 2.85194 23.8236 3.89605 25.1778 5.22556C26.532 6.55507 27.5955 8.10372 28.3383 9.82783C29.1077 11.6133 29.4977 13.5099 29.4977 15.4644C29.4977 19.0354 28.1623 22.4655 25.7373 25.1231C23.3315 27.7595 20.0437 29.4365 16.4793 29.8458C15.909 29.9113 15.3268 29.9445 14.7489 29.9445ZM14.7489 2.34024C7.37769 2.34024 1.38066 8.22798 1.38066 15.4648C1.38066 21.8029 5.98131 27.2316 12.3201 28.3732C13.1155 28.5167 13.9327 28.5893 14.7489 28.5893C15.2735 28.5893 15.8016 28.5592 16.319 28.4997C23.0451 27.7275 28.117 22.1237 28.117 15.4648C28.117 8.22798 22.12 2.34024 14.7489 2.34024Z" fill="#282A37"/>
<path d="M19.8454 11.3791C19.8454 11.869 19.4392 12.2677 18.9403 12.2677C18.4413 12.2677 18.0352 11.869 18.0352 11.3791C18.0352 10.8893 18.4409 10.4905 18.9403 10.4905C19.4396 10.4905 19.8454 10.8893 19.8454 11.3791Z" fill="#282A37"/>
<path d="M14.8137 11.6593C12.6764 11.6593 10.9375 13.3664 10.9375 15.4648C10.9375 17.5632 12.6764 19.2704 14.8137 19.2704C16.951 19.2704 18.6899 17.5632 18.6899 15.4648C18.6899 13.3664 16.951 11.6593 14.8137 11.6593ZM14.8137 17.9397C13.4234 17.9397 12.2928 16.8293 12.2928 15.4648C12.2928 14.1003 13.4238 12.9899 14.8137 12.9899C16.2035 12.9899 17.3345 14.1003 17.3345 15.4648C17.3345 16.8293 16.2035 17.9397 14.8137 17.9397Z" fill="#282A37"/>
<path d="M17.9095 7.71478H11.588C8.97861 7.71478 6.85547 9.79923 6.85547 12.3611V18.5678C6.85547 21.1296 8.97861 23.2141 11.588 23.2141H17.9095C20.5194 23.2141 22.6425 21.1296 22.6425 18.5678V12.3611C22.6425 9.79923 20.5194 7.71478 17.9095 7.71478ZM21.1993 18.5678C21.1993 20.3487 19.7236 21.7972 17.9095 21.7972H11.588C9.77402 21.7972 8.29864 20.3483 8.29864 18.5678V12.3611C8.29864 10.5801 9.7744 9.13165 11.588 9.13165H17.9095C19.7236 9.13165 21.1993 10.5805 21.1993 12.3611V18.5678Z" fill="#282A37"/>
</svg>
