<svg width="30" height="30" viewBox="0 0 30 30" fill="none" xmlns="http://www.w3.org/2000/svg">
<path d="M14.7489 29.9445C12.758 29.9445 10.8266 29.5615 9.00762 28.8062C7.25112 28.0769 5.67411 27.0328 4.31991 25.7033C2.96572 24.3738 1.90224 22.8251 1.15937 21.101C0.390034 19.3155 0 17.419 0 15.4644C0 13.5099 0.390034 11.6137 1.15937 9.82783C1.90224 8.10334 2.96572 6.55507 4.31991 5.22556C5.67411 3.89605 7.2515 2.85194 9.00762 2.12261C10.8263 1.3673 12.758 0.984375 14.7489 0.984375C16.7397 0.984375 18.6711 1.3673 20.4901 2.12261C22.2466 2.85194 23.8236 3.89605 25.1778 5.22556C26.532 6.55507 27.5955 8.10372 28.3383 9.82783C29.1077 11.6133 29.4977 13.5099 29.4977 15.4644C29.4977 17.419 29.1077 19.3151 28.3383 21.101C27.5955 22.8255 26.532 24.3738 25.1778 25.7033C23.8236 27.0328 22.2462 28.0769 20.4901 28.8062C18.6714 29.5615 16.7397 29.9445 14.7489 29.9445ZM14.7489 2.33987C7.37769 2.33987 1.38066 8.2276 1.38066 15.4644C1.38066 22.7012 7.37769 28.589 14.7489 28.589C22.12 28.589 28.117 22.7012 28.117 15.4644C28.117 8.2276 22.12 2.33987 14.7489 2.33987Z" fill="#282A37"/>
<path d="M21.3104 17.1716V21.8815H18.5936V17.7066C18.5936 16.71 18.5736 15.4294 17.1803 15.4294C15.787 15.4294 15.5492 16.5142 15.5492 17.634V21.8815H12.832V13.2945H15.4399V14.447C15.4399 14.4591 15.4499 14.4689 15.4622 14.4689C15.4702 14.4689 15.4779 14.4644 15.4817 14.4572C15.8491 13.7847 16.7335 13.0818 18.0501 13.0818C20.8026 13.0818 21.3104 14.859 21.3104 17.172V17.1716Z" fill="black"/>
<path d="M11.1468 13.2742H8.38281V21.9019H11.1468V13.2742Z" fill="black"/>
<path d="M20.7505 14.2486C20.2373 13.4496 19.361 13.0614 18.0708 13.0614C17.4676 13.0614 16.8965 13.2132 16.4202 13.5001C16.0187 13.7418 15.6865 14.0784 15.4844 14.4478C15.4844 14.4486 15.4837 14.4486 15.4829 14.4486C15.4817 14.4486 15.481 14.4478 15.481 14.4467V13.2738H12.832V21.9015H15.5903V17.6336C15.5903 16.5533 15.7816 15.4494 17.2007 15.4494C18.6197 15.4494 18.5932 16.754 18.5932 17.7066V21.9019H21.3511V17.172C21.3511 15.7976 21.1658 14.8962 20.7501 14.249L20.7505 14.2486Z" fill="#282A37"/>
<path d="M11.1488 13.2538H8.34375V21.9218H11.1488V13.2538Z" fill="#282A37"/>
<path d="M9.76492 9.00662C8.88437 9.00662 8.16797 9.70997 8.16797 10.5745C8.16797 11.439 8.88437 12.1423 9.76492 12.1423C10.6455 12.1423 11.3619 11.439 11.3619 10.5745C11.3619 9.70997 10.6455 9.00662 9.76492 9.00662Z" fill="#282A37"/>
<path d="M9.74812 12.122C10.6187 12.122 11.3244 11.4291 11.3244 10.5745C11.3244 9.71979 10.6187 9.02695 9.74812 9.02695C8.87758 9.02695 8.17188 9.71979 8.17188 10.5745C8.17188 11.4291 8.87758 12.122 9.74812 12.122Z" fill="#282A37"/>
</svg>
