<svg width="28" height="29" viewBox="0 0 28 29" fill="none" xmlns="http://www.w3.org/2000/svg">
<path d="M14.0005 1.02148C6.57775 1.02148 0.560547 7.03868 0.560547 14.4615C0.560547 21.8843 6.57775 27.9015 14.0005 27.9015C21.4233 27.9015 27.4405 21.8843 27.4405 14.4615C27.4405 7.03868 21.4233 1.02148 14.0005 1.02148ZM10.7105 20.0321H7.98895V11.2737H10.7105V20.0321ZM9.33295 10.1985C8.47335 10.1985 7.91755 9.58948 7.91755 8.83628C7.91755 8.06768 8.49015 7.47688 9.36795 7.47688C10.2457 7.47688 10.7833 8.06768 10.8001 8.83628C10.8001 9.58948 10.2457 10.1985 9.33295 10.1985ZM20.6505 20.0321H17.9289V15.1783C17.9289 14.0485 17.5341 13.2813 16.5499 13.2813C15.7981 13.2813 15.3515 13.8007 15.1541 14.3005C15.0813 14.4783 15.0631 14.7303 15.0631 14.9809V20.0307H12.3401V14.0667C12.3401 12.9733 12.3051 12.0591 12.2687 11.2723H14.6333L14.7579 12.4889H14.8125C15.1709 11.9177 16.0487 11.0749 17.5173 11.0749C19.3079 11.0749 20.6505 12.2747 20.6505 14.8535V20.0321Z" fill="white"/>
</svg>
