<svg width="32" height="32" viewBox="0 0 32 32" fill="none" xmlns="http://www.w3.org/2000/svg">
<path fill-rule="evenodd" clip-rule="evenodd" d="M6.66797 5.33337C4.45883 5.33337 2.66797 7.12423 2.66797 9.33337V22.6667C2.66797 24.8758 4.45883 26.6667 6.66797 26.6667H25.3346C27.5438 26.6667 29.3346 24.8758 29.3346 22.6667V9.33337C29.3346 7.12424 27.5438 5.33337 25.3346 5.33337H6.66797ZM6.43532 8.02027C6.51087 8.00697 6.58861 8.00004 6.66797 8.00004H25.3346C25.414 8.00004 25.4918 8.00698 25.5673 8.02027L16.0013 14.3976L6.43532 8.02027ZM5.33464 10.4914V22.6667C5.33464 23.4031 5.93159 24 6.66797 24H25.3346C26.071 24 26.668 23.4031 26.668 22.6667V10.4914L16.7409 17.1095C16.2931 17.408 15.7096 17.408 15.2617 17.1095L5.33464 10.4914Z" fill="#A0ABBB"/>
</svg>
