<svg width="30" height="30" viewBox="0 0 30 30" fill="none" xmlns="http://www.w3.org/2000/svg">
<path d="M27.436 5.18488H15.1061L14.7397 2.24587C14.5796 0.965477 13.4859 -6.10352e-05 12.1955 -6.10352e-05H3.39157C1.97779 -6.10352e-05 0.827587 1.15014 0.827587 2.56392V21.4234C0.827587 22.8372 1.97779 23.9874 3.39157 23.9874H10.5982L10.9599 26.9264C11.1197 28.2042 12.2134 29.1724 13.5041 29.1724H27.436C28.8498 29.1724 30 28.0221 30 26.6084V7.74886C30 6.33508 28.8498 5.18488 27.436 5.18488ZM3.39157 22.2781C2.92031 22.2781 2.53691 21.8947 2.53691 21.4234V2.56392C2.53691 2.09266 2.92031 1.70926 3.39157 1.70926H12.1955C12.6257 1.70926 12.9903 2.03107 13.0435 2.4576C13.1674 3.45106 15.3915 21.2926 15.5143 22.2781H3.39157ZM12.6062 26.3092L12.3204 23.9874H14.6134L12.6062 26.3092ZM28.2907 26.6084C28.2907 27.0796 27.9073 27.463 27.436 27.463H13.8682L17.1219 23.6995C17.2884 23.5116 17.363 23.2623 17.3286 23.0144L15.3192 6.8942H27.436C27.9073 6.8942 28.2907 7.2776 28.2907 7.74886V26.6084Z" fill="#282A37"/>
<path d="M25.6721 12.8769H23.1082V12.0223C23.1082 11.5503 22.7255 11.1676 22.2535 11.1676C21.7815 11.1676 21.3988 11.5503 21.3988 12.0223V12.8769H18.8349C18.3629 12.8769 17.9802 13.2596 17.9802 13.7316C17.9802 14.2036 18.3629 14.5862 18.8349 14.5862H19.0417C19.5287 16.1595 20.2619 17.3671 21.0687 18.3348C20.412 18.9354 19.7475 19.428 19.1556 19.9015C18.7871 20.1963 18.7273 20.7342 19.0222 21.1027C19.3172 21.4715 19.8551 21.5309 20.2235 21.2362C20.8186 20.76 21.5321 20.2309 22.2535 19.5688C22.9755 20.2313 23.6902 20.7615 24.2836 21.2362C24.6521 21.5311 25.19 21.4713 25.4848 21.1027C25.7797 20.7342 25.7199 20.1963 25.3514 19.9015C24.761 19.4291 24.0957 18.936 23.4383 18.3348C24.2451 17.3671 24.9783 16.1595 25.4653 14.5862H25.6721C26.1441 14.5862 26.5268 14.2036 26.5268 13.7316C26.5268 13.2596 26.1441 12.8769 25.6721 12.8769ZM22.2535 17.0787C21.7079 16.3939 21.2171 15.5764 20.8471 14.5805H23.6598C23.2899 15.5764 22.7991 16.3939 22.2535 17.0787Z" fill="#282A37"/>
<path d="M11.9819 15.2733C11.9351 15.0391 10.3237 6.98196 10.2726 6.72664C10.1927 6.32718 9.84192 6.03961 9.43453 6.03961H7.72521C7.31782 6.03961 6.96701 6.32718 6.88719 6.72664C6.83528 6.98629 5.22219 15.0517 5.17786 15.2733C5.08528 15.7361 5.38549 16.1864 5.84832 16.2789C6.31114 16.3715 6.76144 16.0713 6.85397 15.6084L7.40027 12.8769H9.75947L10.3058 15.6085C10.3984 16.0716 10.8488 16.3715 11.3114 16.279C11.7742 16.1864 12.0745 15.7361 11.9819 15.2733ZM7.74213 11.1676L8.42586 7.74893H8.73388L9.41761 11.1676H7.74213Z" fill="#282A37"/>
</svg>
