<svg width="42" height="42" viewBox="0 0 42 42" fill="none" xmlns="http://www.w3.org/2000/svg">
<path fill-rule="evenodd" clip-rule="evenodd" d="M40.1754 20.9998C40.1754 31.6037 31.5793 40.1998 20.9754 40.1998C10.3715 40.1998 1.77539 31.6037 1.77539 20.9998C1.77539 10.3959 10.3715 1.7998 20.9754 1.7998C31.5793 1.7998 40.1754 10.3959 40.1754 20.9998ZM20.9754 41.7998C32.4629 41.7998 41.7754 32.4873 41.7754 20.9998C41.7754 9.51228 32.4629 0.199806 20.9754 0.199806C9.48787 0.199806 0.175393 9.51228 0.175392 20.9998C0.175392 32.4873 9.48787 41.7998 20.9754 41.7998Z" fill="#41C7DF"/>
<path fill-rule="evenodd" clip-rule="evenodd" d="M20.9734 27.7998C21.4153 27.7998 21.7734 27.4416 21.7734 26.9998V14.9998C21.7734 14.558 21.4153 14.1998 20.9734 14.1998C20.5316 14.1998 20.1734 14.558 20.1734 14.9998V26.9998C20.1734 27.4416 20.5316 27.7998 20.9734 27.7998Z" fill="#41C7DF"/>
<path fill-rule="evenodd" clip-rule="evenodd" d="M27.196 21.2229C27.5085 20.9105 27.5085 20.404 27.196 20.0915L21.5392 14.4347C21.2268 14.1223 20.7202 14.1223 20.4078 14.4347L14.751 20.0915C14.4385 20.404 14.4385 20.9105 14.751 21.2229C15.0634 21.5353 15.5699 21.5353 15.8823 21.2229L20.9735 16.1317L26.0647 21.2229C26.3771 21.5353 26.8836 21.5353 27.196 21.2229Z" fill="#41C7DF"/>
</svg>
