<svg width="28" height="29" viewBox="0 0 28 29" fill="none" xmlns="http://www.w3.org/2000/svg">
<path d="M14.0005 1.02148C6.57775 1.02148 0.560547 7.03868 0.560547 14.4615C0.560547 21.8843 6.57775 27.9015 14.0005 27.9015C21.4233 27.9015 27.4405 21.8843 27.4405 14.4615C27.4405 7.03868 21.4233 1.02148 14.0005 1.02148ZM19.4675 12.0311C19.4731 12.1459 19.4745 12.2607 19.4745 12.3727C19.4745 15.8727 16.8131 19.9061 11.9439 19.9061C10.5052 19.9085 9.0963 19.4952 7.88675 18.7161C8.09255 18.7413 8.30395 18.7511 8.51815 18.7511C9.75855 18.7511 10.8995 18.3297 11.8053 17.6185C11.2534 17.6076 10.7185 17.4249 10.2753 17.0956C9.83212 16.7664 9.5027 16.307 9.33295 15.7817C9.72936 15.8571 10.1377 15.8413 10.5271 15.7355C9.92801 15.6143 9.38922 15.2897 9.00214 14.8166C8.61505 14.3435 8.4035 13.7511 8.40335 13.1399V13.1077C8.76035 13.3051 9.16915 13.4255 9.60315 13.4395C9.04146 13.0656 8.64385 12.4912 8.49161 11.8339C8.33937 11.1765 8.44402 10.4858 8.78415 9.90308C9.44908 10.7207 10.2783 11.3895 11.2181 11.8663C12.158 12.3431 13.1875 12.6172 14.2399 12.6709C14.1061 12.1029 14.1637 11.5067 14.4038 10.9748C14.6438 10.4429 15.0528 10.0053 15.5672 9.72985C16.0817 9.45444 16.6727 9.3567 17.2484 9.45182C17.8241 9.54695 18.3523 9.82962 18.7507 10.2559C19.3432 10.1387 19.9113 9.92136 20.4307 9.61328C20.2333 10.2267 19.8199 10.7475 19.2673 11.0791C19.7921 11.0159 20.3046 10.8748 20.7877 10.6605C20.4328 11.1923 19.9857 11.6565 19.4675 12.0311Z" fill="white"/>
</svg>
