<svg width="30" height="30" viewBox="0 0 30 30" fill="none" xmlns="http://www.w3.org/2000/svg">
<path d="M14.7488 29.9445C12.758 29.9445 10.8266 29.5615 9.00763 28.8062C7.25113 28.0769 5.67412 27.0328 4.31992 25.7033C2.96573 24.3738 1.90224 22.8251 1.15937 21.101C0.390034 19.3155 0 17.419 0 15.4644C0 13.5099 0.390034 11.6137 1.15937 9.82783C1.90224 8.10334 2.96573 6.55507 4.31992 5.22556C5.67412 3.89605 7.25151 2.85194 9.00763 2.12261C10.8263 1.3673 12.758 0.984375 14.7488 0.984375C16.7397 0.984375 18.6711 1.3673 20.4901 2.12261C22.2466 2.85194 23.8236 3.89605 25.1778 5.22556C26.532 6.55507 27.5955 8.10372 28.3383 9.82783C29.1077 11.6133 29.4977 13.5099 29.4977 15.4644C29.4977 17.419 29.1077 19.3151 28.3383 21.101C27.5955 22.8255 26.532 24.3738 25.1778 25.7033C23.8236 27.0328 22.2462 28.0769 20.4901 28.8062C18.6714 29.5615 16.7397 29.9445 14.7488 29.9445ZM14.7488 2.33987C7.37768 2.33987 1.38066 8.2276 1.38066 15.4644C1.38066 22.7012 7.37768 28.589 14.7488 28.589C22.12 28.589 28.1171 22.7012 28.1171 15.4644C28.1171 8.2276 22.12 2.33987 14.7488 2.33987Z" fill="#282A37"/>
<path fill-rule="evenodd" clip-rule="evenodd" d="M22.7443 12.0241C22.5311 11.5328 22.2668 11.0587 21.9592 10.6152C21.6547 10.1761 21.305 9.76308 20.9195 9.38769C20.5345 9.01229 20.1103 8.67153 19.6597 8.37483C19.2045 8.07512 18.7182 7.81795 18.2135 7.61011C17.1638 7.17748 16.0489 6.95834 14.8995 6.95834C13.7501 6.95834 12.6348 7.17748 11.5852 7.61011C11.0808 7.81795 10.5941 8.07512 10.1389 8.37483C9.6879 8.67153 9.26413 9.01229 8.87908 9.38769C8.49365 9.76308 8.14387 10.1761 7.83936 10.6152C7.53178 11.0587 7.26793 11.5324 7.05431 12.0241C6.61059 13.0468 6.38547 14.1327 6.38547 15.2524C6.38547 16.0202 6.49323 16.7808 6.70531 17.5124C6.91088 18.2217 7.21424 18.9025 7.60657 19.5347L7.61348 19.546L6.08594 23.9701L10.7733 22.5077L10.784 22.5134C11.4007 22.8458 12.0584 23.1026 12.7392 23.2758C13.4406 23.4547 14.1674 23.545 14.8995 23.545C16.0489 23.545 17.1638 23.3259 18.2135 22.8933C18.7178 22.6854 19.2045 22.4283 19.6597 22.1286C20.1103 21.8319 20.5345 21.4911 20.9195 21.1157C21.3046 20.7403 21.6547 20.3276 21.9592 19.8882C22.2668 19.4451 22.5307 18.971 22.7443 18.4796C23.188 17.4574 23.4132 16.3711 23.4132 15.2517C23.4132 14.1323 23.188 13.046 22.7443 12.0234V12.0241ZM14.8999 22.2769C13.4882 22.2769 12.1205 21.8778 10.9439 21.1229L8.1431 21.9968L9.05358 19.3596C8.16075 18.1566 7.68902 16.7367 7.68902 15.2524C7.68902 11.3788 10.924 8.22723 14.9003 8.22723C18.8766 8.22723 22.1107 11.3788 22.1107 15.2524C22.1107 19.1261 18.8762 22.2769 14.9003 22.2769H14.8999Z" fill="#282A37"/>
<path fill-rule="evenodd" clip-rule="evenodd" d="M18.9498 17.3437C18.8969 17.2586 18.7573 17.2074 18.5487 17.1053C18.3393 17.0037 17.3095 16.5097 17.1174 16.4419C16.8294 16.3402 16.6952 16.489 16.5291 16.6998C16.3554 16.9208 16.1705 17.1343 15.9826 17.3433C15.8606 17.4796 15.7391 17.4962 15.5293 17.3945C14.4125 16.9769 13.3386 16.1026 12.6797 14.9697C12.5582 14.766 12.6675 14.6556 12.7714 14.5536C13.0238 14.3085 13.4698 13.8759 13.2777 13.4986C13.2259 13.3969 12.8067 12.3927 12.6318 11.9842C12.5697 11.8385 12.4792 11.6589 12.3131 11.6069C12.1006 11.5407 11.8249 11.6103 11.6212 11.6837C11.4237 11.7549 11.2439 11.8679 11.0912 12.0098C10.7787 12.3005 10.5858 12.7015 10.5079 13.1142C10.4845 13.2377 10.4719 13.3627 10.4692 13.4884C10.4684 13.5234 10.4688 13.5588 10.4695 13.5938C10.4929 14.362 10.8592 15.0898 11.3229 15.693C11.4276 15.8293 12.771 17.9563 14.8999 18.773C15.4154 18.9706 15.9189 19.2191 16.4685 19.3148C17.5128 19.4966 18.8336 18.9236 19.0143 17.797C19.0388 17.6441 19.0334 17.4792 18.9494 17.3437H18.9498Z" fill="#282A37"/>
</svg>
