<svg width="30" height="30" viewBox="0 0 30 30" fill="none" xmlns="http://www.w3.org/2000/svg">
<path d="M14.7489 29.9445C12.758 29.9445 10.8266 29.5615 9.00763 28.8062C7.25113 28.0769 5.67411 27.0328 4.31992 25.7033C2.96573 24.3738 1.90224 22.8251 1.15937 21.101C0.390034 19.3155 0 17.419 0 15.4644C0 13.5099 0.390034 11.6137 1.15937 9.82783C1.90224 8.10334 2.96573 6.55507 4.31992 5.22556C5.67411 3.89605 7.25151 2.85194 9.00763 2.12261C10.8263 1.3673 12.758 0.984375 14.7489 0.984375C16.7397 0.984375 18.6711 1.3673 20.4901 2.12261C22.2466 2.85194 23.8236 3.89605 25.1778 5.22556C26.532 6.55507 27.5955 8.10372 28.3383 9.82783C29.1077 11.6133 29.4977 13.5099 29.4977 15.4644C29.4977 17.419 29.1077 19.3151 28.3383 21.101C27.5955 22.8255 26.532 24.3738 25.1778 25.7033C23.8236 27.0328 22.2462 28.0769 20.4901 28.8062C18.6714 29.5615 16.7397 29.9445 14.7489 29.9445ZM14.7489 2.33987C7.37768 2.33987 1.38066 8.2276 1.38066 15.4644C1.38066 22.7012 7.37768 28.589 14.7489 28.589C22.12 28.589 28.1171 22.7012 28.1171 15.4644C28.1171 8.2276 22.12 2.33987 14.7489 2.33987Z" fill="#282A37"/>
<path d="M16.1869 14.3171L21.4242 8.23212H19.5074L15.2995 13.1217L11.6614 8.23212H7.07422L13.0475 16.1719L7.43165 22.6967H9.34999L13.9437 17.3606L17.9584 22.6967H22.4225L16.1873 14.3171H16.1869ZM9.11567 9.23857H11.1337L20.3389 21.6108H18.4251L9.11567 9.23857Z" fill="#282A37"/>
</svg>
