<svg width="30" height="30" viewBox="0 0 30 30" fill="none" xmlns="http://www.w3.org/2000/svg">
<path d="M14.7462 29.9392C12.7557 29.9392 10.8243 29.5563 9.0061 28.8013C7.24998 28.072 5.67296 27.0283 4.31916 25.6988C2.96496 24.3692 1.90186 22.8214 1.15899 21.0972C0.390043 19.3118 0 17.416 0 15.4618C0 13.5076 0.390043 11.6114 1.15899 9.82632C1.90186 8.10221 2.96496 6.55394 4.31916 5.22481C5.67335 3.89529 7.24998 2.85157 9.0061 2.12224C10.8243 1.3673 12.7557 0.984375 14.7462 0.984375C16.7366 0.984375 18.668 1.3673 20.4862 2.12224C22.2424 2.85157 23.8194 3.89529 25.1732 5.22481C26.5274 6.55432 27.5905 8.10221 28.3333 9.82632C29.1023 11.6118 29.4923 13.5076 29.4923 15.4618C29.4923 17.416 29.1023 19.3121 28.3333 21.0972C27.5905 22.8214 26.5274 24.3696 25.1732 25.6988C23.819 27.0283 22.2424 28.072 20.4862 28.8013C18.6676 29.5563 16.7366 29.9392 14.7462 29.9392ZM14.7462 2.33987C7.37615 2.33987 1.38066 8.22647 1.38066 15.4618C1.38066 22.6971 7.37654 28.5837 14.7462 28.5837C22.1158 28.5837 28.1117 22.6971 28.1117 15.4618C28.1117 8.22647 22.1158 2.33987 14.7462 2.33987Z" fill="#282A37"/>
<path d="M23.806 10.9638C23.5885 10.1599 22.9477 9.52663 22.1338 9.31163C20.6588 8.92117 14.745 8.92117 14.745 8.92117C14.745 8.92117 8.83121 8.92117 7.35621 9.31163C6.54239 9.52663 5.90193 10.1599 5.68409 10.9638C5.28907 12.4214 5.28906 15.4618 5.28906 15.4618C5.28906 15.4618 5.28907 18.5026 5.68409 19.9598C5.90155 20.7637 6.54239 21.397 7.35621 21.612C8.83121 22.0024 14.745 22.0024 14.745 22.0024C14.745 22.0024 20.6588 22.0024 22.1338 21.612C22.9477 21.397 23.5885 20.7637 23.806 19.9598C24.201 18.5022 24.201 15.4618 24.201 15.4618C24.201 15.4618 24.201 12.421 23.806 10.9638ZM17.4879 15.5721L12.9337 18.1423C12.8474 18.1909 12.74 18.1299 12.74 18.0323V12.892C12.74 12.7945 12.8474 12.7335 12.9337 12.7821L17.4879 15.3522C17.5742 15.4012 17.5742 15.5235 17.4879 15.5721Z" fill="#282A37"/>
</svg>
