<svg width="28" height="29" viewBox="0 0 28 29" fill="none" xmlns="http://www.w3.org/2000/svg">
<path d="M16.2447 14.2277L13.1003 12.7605C12.8259 12.6331 12.6005 12.7759 12.6005 13.0797V15.8433C12.6005 16.1471 12.8259 16.2899 13.1003 16.1625L16.2433 14.6953C16.5191 14.5665 16.5191 14.3565 16.2447 14.2277ZM14.0005 1.02148C6.57775 1.02148 0.560547 7.03868 0.560547 14.4615C0.560547 21.8843 6.57775 27.9015 14.0005 27.9015C21.4233 27.9015 27.4405 21.8843 27.4405 14.4615C27.4405 7.03868 21.4233 1.02148 14.0005 1.02148ZM14.0005 19.9215C7.12095 19.9215 7.00055 19.3013 7.00055 14.4615C7.00055 9.62168 7.12095 9.00148 14.0005 9.00148C20.8801 9.00148 21.0005 9.62168 21.0005 14.4615C21.0005 19.3013 20.8801 19.9215 14.0005 19.9215Z" fill="white"/>
</svg>
